<mxfile host="Electron" modified="2023-12-05T19:49:17.797Z" agent="Mozilla/5.0 (X11; Linux x86_64) AppleWebKit/537.36 (KHTML, like Gecko) draw.io/22.1.2 Chrome/114.0.5735.289 Electron/25.9.4 Safari/537.36" etag="O6098h5ElSax7dbEKPG8" version="22.1.2" type="device">
  <diagram id="G4t1x3i_cumIOjZ8GDXV" name="Page-1">
    <mxGraphModel dx="2020" dy="1203" grid="1" gridSize="10" guides="1" tooltips="1" connect="1" arrows="1" fold="1" page="1" pageScale="1" pageWidth="850" pageHeight="1100" math="0" shadow="0">
      <root>
        <mxCell id="0" />
        <mxCell id="1" parent="0" />
        <mxCell id="d0rf5hO-lCL4Q1tjQsr9-38" value="Manage instances" style="rounded=0;orthogonalLoop=1;jettySize=auto;html=1;entryX=1;entryY=0.75;entryDx=0;entryDy=0;startArrow=classic;startFill=1;endArrow=none;endFill=0;exitX=0;exitY=0.5;exitDx=0;exitDy=0;" parent="1" source="zAgNuWyr5u-YzhFzlj54-1" target="d0rf5hO-lCL4Q1tjQsr9-13" edge="1">
          <mxGeometry x="-0.0476" relative="1" as="geometry">
            <mxPoint as="offset" />
          </mxGeometry>
        </mxCell>
        <mxCell id="zAgNuWyr5u-YzhFzlj54-1" value="Deployment infrastructure" style="rounded=1;whiteSpace=wrap;html=1;gradientColor=#ea6b66;fillColor=#f8cecc;strokeColor=#b85450;" parent="1" vertex="1">
          <mxGeometry x="679" y="490" width="122" height="60" as="geometry" />
        </mxCell>
        <mxCell id="zAgNuWyr5u-YzhFzlj54-6" value="&lt;div&gt;&lt;span&gt;For Messaging&amp;nbsp;&lt;/span&gt;&lt;span&gt;service:&lt;/span&gt;&lt;/div&gt;&lt;div&gt;&lt;span&gt;- Configurator gathers and analyzes&lt;/span&gt;&lt;/div&gt;&lt;div&gt;&lt;span style=&quot;background-color: initial;&quot;&gt;metrics from the observability infrastructure&lt;/span&gt;&lt;/div&gt;&lt;div&gt;&lt;span style=&quot;background-color: initial;&quot;&gt;- Configurator decides to increase or decrease the number of partitions based on the number of connected users to service instances&lt;/span&gt;&lt;br&gt;&lt;/div&gt;&lt;div&gt;&lt;span style=&quot;background-color: initial;&quot;&gt;- Configurator updates the Config DB&lt;/span&gt;&lt;/div&gt;&lt;div&gt;&lt;span&gt;- Configurator manages service instances via the deployment infrastructure&lt;/span&gt;&lt;/div&gt;" style="shape=note;whiteSpace=wrap;html=1;backgroundOutline=1;darkOpacity=0.05;align=left;gradientColor=#b3b3b3;fillColor=#f5f5f5;strokeColor=#666666;" parent="1" vertex="1">
          <mxGeometry x="552" y="120" width="250" height="130" as="geometry" />
        </mxCell>
        <mxCell id="BohTrpbPn-4vs-TpyyZk-1" value="Register&lt;br style=&quot;border-color: var(--border-color);&quot;&gt;Create session&lt;br style=&quot;border-color: var(--border-color);&quot;&gt;Manage own&amp;nbsp;profile&lt;br style=&quot;border-color: var(--border-color);&quot;&gt;Manage connections&lt;br style=&quot;border-color: var(--border-color);&quot;&gt;Get public profiles&lt;br style=&quot;border-color: var(--border-color);&quot;&gt;Get user chats&lt;br style=&quot;border-color: var(--border-color);&quot;&gt;Get chat history" style="edgeStyle=orthogonalEdgeStyle;rounded=0;orthogonalLoop=1;jettySize=auto;html=1;entryX=0;entryY=0.5;entryDx=0;entryDy=0;" edge="1" parent="1" source="d0rf5hO-lCL4Q1tjQsr9-3" target="d0rf5hO-lCL4Q1tjQsr9-20">
          <mxGeometry relative="1" as="geometry" />
        </mxCell>
        <mxCell id="BohTrpbPn-4vs-TpyyZk-2" style="edgeStyle=orthogonalEdgeStyle;rounded=0;orthogonalLoop=1;jettySize=auto;html=1;entryX=0;entryY=0.25;entryDx=0;entryDy=0;startArrow=classic;startFill=1;" edge="1" parent="1" source="d0rf5hO-lCL4Q1tjQsr9-3" target="d0rf5hO-lCL4Q1tjQsr9-7">
          <mxGeometry relative="1" as="geometry">
            <Array as="points">
              <mxPoint x="110" y="310" />
              <mxPoint x="110" y="325" />
            </Array>
          </mxGeometry>
        </mxCell>
        <mxCell id="d0rf5hO-lCL4Q1tjQsr9-3" value="Client" style="shape=umlActor;verticalLabelPosition=bottom;verticalAlign=top;html=1;outlineConnect=0;" parent="1" vertex="1">
          <mxGeometry x="40" y="270" width="30" height="60" as="geometry" />
        </mxCell>
        <mxCell id="d0rf5hO-lCL4Q1tjQsr9-4" value="Send message&lt;br&gt;React to message&lt;br&gt;Receive notifications" style="edgeStyle=orthogonalEdgeStyle;rounded=0;orthogonalLoop=1;jettySize=auto;html=1;entryX=0;entryY=0.5;entryDx=0;entryDy=0;startArrow=classic;startFill=1;" parent="1" source="d0rf5hO-lCL4Q1tjQsr9-5" target="d0rf5hO-lCL4Q1tjQsr9-7" edge="1">
          <mxGeometry x="0.0588" relative="1" as="geometry">
            <mxPoint as="offset" />
            <Array as="points">
              <mxPoint x="110" y="460" />
              <mxPoint x="110" y="340" />
            </Array>
          </mxGeometry>
        </mxCell>
        <mxCell id="d0rf5hO-lCL4Q1tjQsr9-5" value="Client" style="shape=umlActor;verticalLabelPosition=bottom;verticalAlign=top;html=1;outlineConnect=0;" parent="1" vertex="1">
          <mxGeometry x="40" y="430" width="30" height="60" as="geometry" />
        </mxCell>
        <mxCell id="d0rf5hO-lCL4Q1tjQsr9-7" value="&lt;font style=&quot;font-size: 12px&quot;&gt;Messaging&lt;/font&gt;" style="rounded=1;whiteSpace=wrap;html=1;gradientColor=#ffa500;fillColor=#ffcd28;strokeColor=#d79b00;" parent="1" vertex="1">
          <mxGeometry x="150" y="310" width="120" height="60" as="geometry" />
        </mxCell>
        <mxCell id="d0rf5hO-lCL4Q1tjQsr9-13" value="Configurator" style="rounded=1;whiteSpace=wrap;html=1;gradientColor=#ffa500;fillColor=#ffcd28;strokeColor=#d79b00;" parent="1" vertex="1">
          <mxGeometry x="400" y="400" width="120" height="60" as="geometry" />
        </mxCell>
        <mxCell id="d0rf5hO-lCL4Q1tjQsr9-16" value="&lt;font style=&quot;font-size: 12px&quot;&gt;ID Gen&lt;/font&gt;" style="rounded=1;whiteSpace=wrap;html=1;gradientColor=#ffa500;fillColor=#ffcd28;strokeColor=#d79b00;" parent="1" vertex="1">
          <mxGeometry x="400" y="310" width="120" height="60" as="geometry" />
        </mxCell>
        <mxCell id="d0rf5hO-lCL4Q1tjQsr9-17" value="Get message IDs" style="endArrow=classic;html=1;exitX=1;exitY=0.5;exitDx=0;exitDy=0;entryX=0;entryY=0.5;entryDx=0;entryDy=0;" parent="1" source="d0rf5hO-lCL4Q1tjQsr9-7" target="d0rf5hO-lCL4Q1tjQsr9-16" edge="1">
          <mxGeometry width="50" height="50" relative="1" as="geometry">
            <mxPoint x="530" y="85" as="sourcePoint" />
            <mxPoint x="290" y="275" as="targetPoint" />
            <mxPoint as="offset" />
          </mxGeometry>
        </mxCell>
        <mxCell id="QSnCtZxuHhLnOK5eIwUb-2" value="Create own profile&lt;br style=&quot;border-color: var(--border-color);&quot;&gt;Authenticate&lt;br style=&quot;border-color: var(--border-color);&quot;&gt;Manage own profile&lt;br style=&quot;border-color: var(--border-color);&quot;&gt;Manage connections&lt;br style=&quot;border-color: var(--border-color);&quot;&gt;Get public profiles" style="rounded=0;orthogonalLoop=1;jettySize=auto;html=1;entryX=0;entryY=0.5;entryDx=0;entryDy=0;edgeStyle=orthogonalEdgeStyle;exitX=1;exitY=0.75;exitDx=0;exitDy=0;" parent="1" source="d0rf5hO-lCL4Q1tjQsr9-20" target="QSnCtZxuHhLnOK5eIwUb-1" edge="1">
          <mxGeometry x="0.1282" relative="1" as="geometry">
            <mxPoint x="250" y="260" as="sourcePoint" />
            <mxPoint as="offset" />
          </mxGeometry>
        </mxCell>
        <mxCell id="d0rf5hO-lCL4Q1tjQsr9-20" value="&lt;font style=&quot;font-size: 12px&quot;&gt;Backend&amp;nbsp; &amp;nbsp; &amp;nbsp; &amp;nbsp;&lt;br&gt;For Frontend&lt;/font&gt;" style="rounded=1;whiteSpace=wrap;html=1;gradientColor=#ffa500;fillColor=#ffcd28;strokeColor=#d79b00;" parent="1" vertex="1">
          <mxGeometry x="150" y="120" width="120" height="60" as="geometry" />
        </mxCell>
        <mxCell id="d0rf5hO-lCL4Q1tjQsr9-23" value="&lt;font style=&quot;font-size: 12px&quot;&gt;Chats&lt;/font&gt;" style="rounded=1;whiteSpace=wrap;html=1;gradientColor=#ffa500;fillColor=#ffcd28;strokeColor=#d79b00;" parent="1" vertex="1">
          <mxGeometry x="400" y="40" width="120" height="60" as="geometry" />
        </mxCell>
        <mxCell id="d0rf5hO-lCL4Q1tjQsr9-27" value="Get user chats&lt;br&gt;Get chat history" style="endArrow=classic;html=1;entryX=0;entryY=0.5;entryDx=0;entryDy=0;edgeStyle=orthogonalEdgeStyle;rounded=0;exitX=1;exitY=0.25;exitDx=0;exitDy=0;" parent="1" source="d0rf5hO-lCL4Q1tjQsr9-20" target="d0rf5hO-lCL4Q1tjQsr9-23" edge="1">
          <mxGeometry width="50" height="50" relative="1" as="geometry">
            <mxPoint x="260" y="80" as="sourcePoint" />
            <mxPoint x="330" y="100" as="targetPoint" />
            <mxPoint as="offset" />
          </mxGeometry>
        </mxCell>
        <mxCell id="d0rf5hO-lCL4Q1tjQsr9-40" value="&lt;div&gt;&lt;span&gt;For BFF, User, Chats,&amp;nbsp;&lt;/span&gt;&lt;span&gt;ID Gen:&lt;/span&gt;&lt;/div&gt;&lt;div&gt;- Load balancing distributes requests&lt;span&gt;&lt;br&gt;&lt;/span&gt;&lt;/div&gt;&lt;div&gt;&lt;span&gt;- Deployment infrastructure keeps an appropriate number of instances in order to handle the load&lt;/span&gt;&lt;/div&gt;" style="shape=note;whiteSpace=wrap;html=1;backgroundOutline=1;darkOpacity=0.05;align=left;gradientColor=#b3b3b3;fillColor=#f5f5f5;strokeColor=#666666;" parent="1" vertex="1">
          <mxGeometry x="550" y="40" width="252" height="70" as="geometry" />
        </mxCell>
        <mxCell id="QSnCtZxuHhLnOK5eIwUb-1" value="&lt;font style=&quot;font-size: 12px&quot;&gt;User&lt;/font&gt;" style="rounded=1;whiteSpace=wrap;html=1;gradientColor=#ffa500;fillColor=#ffcd28;strokeColor=#d79b00;" parent="1" vertex="1">
          <mxGeometry x="400" y="200" width="120" height="60" as="geometry" />
        </mxCell>
        <mxCell id="uL4ajwm0hJNC71HI4jOS-1" value="Observability infrastructure" style="rounded=1;whiteSpace=wrap;html=1;gradientColor=#ea6b66;fillColor=#f8cecc;strokeColor=#b85450;" parent="1" vertex="1">
          <mxGeometry x="680" y="310" width="122" height="60" as="geometry" />
        </mxCell>
        <mxCell id="uL4ajwm0hJNC71HI4jOS-2" value="Gather and&lt;br&gt;analyze metrics" style="rounded=0;orthogonalLoop=1;jettySize=auto;html=1;entryX=1;entryY=0.25;entryDx=0;entryDy=0;startArrow=classic;startFill=1;endArrow=none;endFill=0;exitX=0;exitY=0.5;exitDx=0;exitDy=0;" parent="1" source="uL4ajwm0hJNC71HI4jOS-1" target="d0rf5hO-lCL4Q1tjQsr9-13" edge="1">
          <mxGeometry x="-0.0476" relative="1" as="geometry">
            <mxPoint as="offset" />
            <mxPoint x="690" y="430" as="sourcePoint" />
            <mxPoint x="530" y="430" as="targetPoint" />
          </mxGeometry>
        </mxCell>
        <mxCell id="uL4ajwm0hJNC71HI4jOS-3" value="Config DB" style="shape=cylinder3;whiteSpace=wrap;html=1;boundedLbl=1;backgroundOutline=1;size=15;gradientColor=#7ea6e0;fillColor=#dae8fc;strokeColor=#6c8ebf;" parent="1" vertex="1">
          <mxGeometry x="681" y="390" width="120" height="80" as="geometry" />
        </mxCell>
        <mxCell id="uL4ajwm0hJNC71HI4jOS-6" value="Update&lt;br&gt;partitioning config" style="rounded=0;orthogonalLoop=1;jettySize=auto;html=1;entryX=1;entryY=0.5;entryDx=0;entryDy=0;startArrow=classic;startFill=1;endArrow=none;endFill=0;" parent="1" source="uL4ajwm0hJNC71HI4jOS-3" target="d0rf5hO-lCL4Q1tjQsr9-13" edge="1">
          <mxGeometry x="-0.0476" relative="1" as="geometry">
            <mxPoint as="offset" />
            <mxPoint x="689" y="530" as="sourcePoint" />
            <mxPoint x="530" y="455" as="targetPoint" />
          </mxGeometry>
        </mxCell>
      </root>
    </mxGraphModel>
  </diagram>
</mxfile>
